<svg xmlns="http://www.w3.org/2000/svg" width="23" height="21" viewBox="0 0 23 21" fill="none" class="icon icon-account">
  <path fill-rule="evenodd" clip-rule="evenodd" d="M4.25259 14.1031C5.20069 13.128 6.48659 12.5801 7.82741 12.5801H15.9163C17.2571 12.5801 18.543 13.128 19.4911 14.1031C20.4392 15.0783 20.9719 16.401 20.9719 17.7801V19.8601C20.9719 20.4345 20.5192 20.9001 19.9607 20.9001C19.4023 20.9001 18.9496 20.4345 18.9496 19.8601V17.7801C18.9496 16.9526 18.63 16.159 18.0612 15.5739C17.4923 14.9888 16.7208 14.6601 15.9163 14.6601H7.82741C7.02292 14.6601 6.25138 14.9888 5.68252 15.5739C5.11366 16.159 4.79407 16.9526 4.79407 17.7801V19.8601C4.79407 20.4345 4.34138 20.9001 3.78296 20.9001C3.22454 20.9001 2.77185 20.4345 2.77185 19.8601V17.7801C2.77185 16.401 3.30449 15.0783 4.25259 14.1031Z" fill="#000"></path>
  <path fill-rule="evenodd" clip-rule="evenodd" d="M11.8719 2.1801C10.1966 2.1801 8.83852 3.57697 8.83852 5.3001C8.83852 7.02323 10.1966 8.4201 11.8719 8.4201C13.5471 8.4201 14.9052 7.02323 14.9052 5.3001C14.9052 3.57697 13.5471 2.1801 11.8719 2.1801ZM6.8163 5.3001C6.8163 2.42822 9.07974 0.100098 11.8719 0.100098C14.664 0.100098 16.9274 2.42822 16.9274 5.3001C16.9274 8.17198 14.664 10.5001 11.8719 10.5001C9.07974 10.5001 6.8163 8.17198 6.8163 5.3001Z" fill="#000"></path>
</svg>